<svg width="32" height="32" viewBox="0 0 32 32" fill="none" xmlns="http://www.w3.org/2000/svg">
<path opacity="0.5" d="M31.9922 0.21618L24.1628 29.4667C24.123 29.5995 23.9638 29.6393 23.8709 29.5463L18.6291 24.3017L22.5571 9.64326C22.5969 9.51048 22.4775 9.39098 22.3448 9.43082L7.69452 13.361L2.47934 8.14289C2.38645 8.04995 2.42626 7.89062 2.55896 7.85079L31.7799 0.00373913C31.9126 -0.022816 32.032 0.0966822 31.9922 0.21618Z" fill="#2B369E"/>
<path opacity="0.5" d="M18.6289 24.3015L16.6118 31.8697C16.572 32.0025 16.4128 32.0423 16.3199 31.9493L0.0506254 15.6843C-0.0422659 15.5914 -0.00245554 15.432 0.130246 15.3922L7.69425 13.3607L18.6289 24.3015Z" fill="#2B369E"/>
<path d="M22.5565 9.643L18.6285 24.3015L7.69386 13.3607L22.3441 9.43056C22.4768 9.39073 22.5963 9.51023 22.5565 9.643Z" fill="#2B369E"/>
</svg>
